<svg width="84" height="17" viewBox="0 0 84 17" fill="none" xmlns="http://www.w3.org/2000/svg">
<path d="M26.5916 4.21403C27.441 4.21403 28.1083 4.30736 28.5936 4.49403C29.079 4.67136 29.4243 4.98403 29.6296 5.43203C29.8443 5.8707 29.9516 6.49603 29.9516 7.30803C29.9516 8.12003 29.849 8.75003 29.6436 9.19803C29.4476 9.64603 29.1163 9.9587 28.6496 10.136C28.1923 10.3134 27.581 10.402 26.8156 10.402C26.3956 10.402 25.9896 10.388 25.5976 10.36C25.215 10.332 24.8556 10.2947 24.5196 10.248C24.193 10.2014 23.913 10.1547 23.6796 10.108C23.4463 10.052 23.283 10.0054 23.1896 9.96803L23.2316 9.03003C23.7636 9.03003 24.3096 9.03003 24.8696 9.03003C25.439 9.03003 26.0036 9.03003 26.5636 9.03003C26.9743 9.0207 27.2963 8.96936 27.5296 8.87603C27.7723 8.7827 27.9403 8.6147 28.0336 8.37203C28.1363 8.12003 28.1876 7.76536 28.1876 7.30803C28.1876 6.8507 28.1363 6.5007 28.0336 6.25803C27.9403 6.00603 27.7723 5.83336 27.5296 5.74003C27.2963 5.63736 26.9743 5.58603 26.5636 5.58603C25.7423 5.58603 25.0376 5.5907 24.4496 5.60003C23.8616 5.60936 23.4603 5.62336 23.2456 5.64203L23.0496 4.34003C23.423 4.3027 23.773 4.2747 24.0996 4.25603C24.4356 4.23736 24.795 4.22803 25.1776 4.22803C25.5696 4.2187 26.041 4.21403 26.5916 4.21403ZM24.7996 4.34003V14H23.0496V4.34003H24.7996ZM32.7299 7.12603L32.9539 8.47003L33.1079 8.66603V14H31.4139V7.12603H32.7299ZM36.0899 6.95803L35.9219 8.52603H35.4319C35.0679 8.52603 34.6992 8.5867 34.3259 8.70803C33.9525 8.82936 33.4859 9.01136 32.9259 9.25403L32.8139 8.26003C33.2992 7.84936 33.7939 7.53203 34.2979 7.30803C34.8019 7.0747 35.2872 6.95803 35.7539 6.95803H36.0899ZM40.2094 6.95803C41.0494 6.95803 41.7167 7.0747 42.2114 7.30803C42.7154 7.54136 43.0747 7.92403 43.2894 8.45603C43.5134 8.98803 43.6254 9.6927 43.6254 10.57C43.6254 11.4474 43.5134 12.152 43.2894 12.684C43.0747 13.2067 42.7154 13.5894 42.2114 13.832C41.7167 14.0654 41.0494 14.182 40.2094 14.182C39.388 14.182 38.7254 14.0654 38.2214 13.832C37.7267 13.5894 37.3674 13.2067 37.1434 12.684C36.9194 12.152 36.8074 11.4474 36.8074 10.57C36.8074 9.6927 36.9194 8.98803 37.1434 8.45603C37.3674 7.92403 37.7267 7.54136 38.2214 7.30803C38.7254 7.0747 39.388 6.95803 40.2094 6.95803ZM40.2094 8.24603C39.7987 8.24603 39.472 8.31603 39.2294 8.45603C38.996 8.5867 38.828 8.82003 38.7254 9.15603C38.6227 9.49203 38.5714 9.96336 38.5714 10.57C38.5714 11.1767 38.6227 11.648 38.7254 11.984C38.828 12.32 38.996 12.5534 39.2294 12.684C39.472 12.8147 39.7987 12.88 40.2094 12.88C40.6294 12.88 40.9607 12.8147 41.2034 12.684C41.446 12.5534 41.614 12.32 41.7074 11.984C41.81 11.648 41.8614 11.1767 41.8614 10.57C41.8614 9.96336 41.81 9.49203 41.7074 9.15603C41.614 8.82003 41.446 8.5867 41.2034 8.45603C40.9607 8.31603 40.6294 8.24603 40.2094 8.24603ZM48.1344 6.95803C48.9091 6.95803 49.5204 7.0327 49.9684 7.18203C50.4258 7.32203 50.7524 7.55536 50.9484 7.88203C51.1444 8.19936 51.2424 8.61936 51.2424 9.14203C51.2424 9.64603 51.1444 10.0614 50.9484 10.388C50.7524 10.7054 50.4258 10.9387 49.9684 11.088C49.5111 11.2374 48.8951 11.312 48.1204 11.312C47.3458 11.312 46.7298 11.2374 46.2724 11.088C45.8244 10.9387 45.4978 10.7054 45.2924 10.388C45.0964 10.0707 44.9984 9.65536 44.9984 9.14203C44.9984 8.61936 45.0964 8.19936 45.2924 7.88203C45.4978 7.55536 45.8291 7.32203 46.2864 7.18203C46.7438 7.0327 47.3598 6.95803 48.1344 6.95803ZM48.1204 8.06403C47.5324 8.06403 47.1264 8.14336 46.9024 8.30203C46.6784 8.4607 46.5664 8.7407 46.5664 9.14203C46.5664 9.5247 46.6784 9.80003 46.9024 9.96803C47.1264 10.1267 47.5324 10.206 48.1204 10.206C48.7084 10.206 49.1098 10.1267 49.3244 9.96803C49.5484 9.80003 49.6604 9.5247 49.6604 9.14203C49.6604 8.7407 49.5484 8.4607 49.3244 8.30203C49.1098 8.14336 48.7084 8.06403 48.1204 8.06403ZM52.0404 7.12603L51.9424 7.91003L50.1504 8.10603L49.6464 7.12603H52.0404ZM46.1184 10.892L46.9864 11.018C46.8464 11.13 46.7484 11.2747 46.6924 11.452C46.6458 11.62 46.6598 11.7834 46.7344 11.942C46.8184 12.0914 46.9958 12.1847 47.2664 12.222L49.8144 12.558C50.5051 12.642 50.9904 12.8474 51.2704 13.174C51.5504 13.4914 51.6904 13.9534 51.6904 14.56C51.6904 15.1294 51.5784 15.5727 51.3544 15.89C51.1304 16.2074 50.7618 16.4267 50.2484 16.548C49.7444 16.6787 49.0631 16.744 48.2044 16.744C47.5231 16.744 46.9584 16.7067 46.5104 16.632C46.0624 16.5667 45.7031 16.45 45.4324 16.282C45.1711 16.1234 44.9844 15.9134 44.8724 15.652C44.7604 15.4 44.7044 15.0827 44.7044 14.7C44.7044 14.4014 44.7511 14.1494 44.8444 13.944C44.9471 13.7387 45.1104 13.5567 45.3344 13.398C45.5584 13.23 45.8618 13.076 46.2444 12.936L47.1964 12.53L47.8544 12.768L47.2384 13.202C47.0238 13.3607 46.8464 13.5054 46.7064 13.636C46.5758 13.7574 46.4778 13.8787 46.4124 14C46.3564 14.1307 46.3284 14.294 46.3284 14.49C46.3284 14.7514 46.3798 14.952 46.4824 15.092C46.5944 15.232 46.7858 15.3254 47.0564 15.372C47.3271 15.428 47.7051 15.456 48.1904 15.456C48.6851 15.456 49.0678 15.428 49.3384 15.372C49.6091 15.3254 49.7958 15.232 49.8984 15.092C50.0104 14.9614 50.0664 14.77 50.0664 14.518C50.0664 14.3127 50.0338 14.1587 49.9684 14.056C49.9031 13.9627 49.7864 13.888 49.6184 13.832C49.4504 13.776 49.2171 13.7294 48.9184 13.692L46.6224 13.412C46.2958 13.3747 46.0344 13.2814 45.8384 13.132C45.6518 12.9734 45.5211 12.7867 45.4464 12.572C45.3718 12.348 45.3484 12.1287 45.3764 11.914C45.4138 11.69 45.4931 11.4847 45.6144 11.298C45.7451 11.1114 45.9131 10.976 46.1184 10.892ZM54.5365 7.12603L54.7605 8.47003L54.9145 8.66603V14H53.2205V7.12603H54.5365ZM57.8965 6.95803L57.7285 8.52603H57.2385C56.8745 8.52603 56.5058 8.5867 56.1325 8.70803C55.7592 8.82936 55.2925 9.01136 54.7325 9.25403L54.6205 8.26003C55.1058 7.84936 55.6005 7.53203 56.1045 7.30803C56.6085 7.0747 57.0938 6.95803 57.5605 6.95803H57.8965ZM61.974 6.95803C63.0847 6.95803 63.8827 7.15403 64.368 7.54603C64.8533 7.9287 65.1007 8.49803 65.11 9.25403C65.1193 9.87936 64.97 10.3554 64.662 10.682C64.3633 10.9994 63.864 11.158 63.164 11.158H59.244V10.108H62.702C63.0193 10.108 63.22 10.024 63.304 9.85603C63.3973 9.68803 63.444 9.4827 63.444 9.24003C63.4347 8.85736 63.3227 8.59136 63.108 8.44203C62.9027 8.2927 62.548 8.21803 62.044 8.21803C61.6053 8.21803 61.2647 8.2787 61.022 8.40003C60.7793 8.52136 60.6067 8.7407 60.504 9.05803C60.4107 9.37536 60.364 9.8327 60.364 10.43C60.364 11.0647 60.4247 11.5547 60.546 11.9C60.6673 12.2454 60.868 12.4834 61.148 12.614C61.428 12.7354 61.8013 12.796 62.268 12.796C62.6133 12.796 63.01 12.782 63.458 12.754C63.9153 12.726 64.354 12.6887 64.774 12.642L64.942 13.72C64.69 13.8227 64.4007 13.9067 64.074 13.972C63.7473 14.0374 63.4067 14.084 63.052 14.112C62.7067 14.1494 62.38 14.168 62.072 14.168C61.232 14.168 60.5553 14.0467 60.042 13.804C59.538 13.552 59.1693 13.16 58.936 12.628C58.712 12.096 58.6 11.41 58.6 10.57C58.6 9.6647 58.712 8.9507 58.936 8.42803C59.1693 7.89603 59.5333 7.51803 60.028 7.29403C60.532 7.07003 61.1807 6.95803 61.974 6.95803ZM69.1106 6.95803C69.4279 6.95803 69.7686 6.96736 70.1326 6.98603C70.5059 7.0047 70.8699 7.0327 71.2246 7.07003C71.5793 7.09803 71.8966 7.14003 72.1766 7.19603L72.0646 8.30203C71.6166 8.2927 71.1686 8.28336 70.7206 8.27403C70.2819 8.25536 69.8479 8.24603 69.4186 8.24603C69.0359 8.24603 68.7326 8.25536 68.5086 8.27403C68.2939 8.2927 68.1399 8.3487 68.0466 8.44203C67.9626 8.53536 67.9206 8.69403 67.9206 8.91803C67.9206 9.1887 67.9953 9.3707 68.1446 9.46403C68.2939 9.54803 68.5366 9.63203 68.8726 9.71603L70.7486 10.15C71.3086 10.29 71.7239 10.5047 71.9946 10.794C72.2653 11.074 72.4006 11.508 72.4006 12.096C72.4006 12.6654 72.2933 13.0994 72.0786 13.398C71.8733 13.6874 71.5419 13.888 71.0846 14C70.6366 14.1027 70.0626 14.154 69.3626 14.154C69.0919 14.154 68.6906 14.14 68.1586 14.112C67.6266 14.0934 67.0433 14.0327 66.4086 13.93L66.5206 12.824C66.7073 12.824 66.9266 12.8287 67.1786 12.838C67.4399 12.8474 67.7153 12.852 68.0046 12.852C68.3033 12.852 68.6066 12.852 68.9146 12.852C69.4093 12.852 69.7873 12.838 70.0486 12.81C70.3193 12.7727 70.5059 12.7027 70.6086 12.6C70.7113 12.488 70.7626 12.3294 70.7626 12.124C70.7626 11.8627 70.6739 11.69 70.4966 11.606C70.3286 11.5127 70.0766 11.424 69.7406 11.34L67.9066 10.892C67.4866 10.78 67.1599 10.64 66.9266 10.472C66.6933 10.2947 66.5253 10.08 66.4226 9.82803C66.3199 9.5667 66.2686 9.24936 66.2686 8.87603C66.2686 8.37203 66.3619 7.98003 66.5486 7.70003C66.7446 7.42003 67.0479 7.22403 67.4586 7.11203C67.8786 7.00003 68.4293 6.9487 69.1106 6.95803ZM76.4114 6.95803C76.7287 6.95803 77.0694 6.96736 77.4334 6.98603C77.8067 7.0047 78.1707 7.0327 78.5254 7.07003C78.8801 7.09803 79.1974 7.14003 79.4774 7.19603L79.3654 8.30203C78.9174 8.2927 78.4694 8.28336 78.0214 8.27403C77.5827 8.25536 77.1487 8.24603 76.7194 8.24603C76.3367 8.24603 76.0334 8.25536 75.8094 8.27403C75.5947 8.2927 75.4407 8.3487 75.3474 8.44203C75.2634 8.53536 75.2214 8.69403 75.2214 8.91803C75.2214 9.1887 75.2961 9.3707 75.4454 9.46403C75.5947 9.54803 75.8374 9.63203 76.1734 9.71603L78.0494 10.15C78.6094 10.29 79.0247 10.5047 79.2954 10.794C79.5661 11.074 79.7014 11.508 79.7014 12.096C79.7014 12.6654 79.5941 13.0994 79.3794 13.398C79.1741 13.6874 78.8427 13.888 78.3854 14C77.9374 14.1027 77.3634 14.154 76.6634 14.154C76.3927 14.154 75.9914 14.14 75.4594 14.112C74.9274 14.0934 74.3441 14.0327 73.7094 13.93L73.8214 12.824C74.0081 12.824 74.2274 12.8287 74.4794 12.838C74.7407 12.8474 75.0161 12.852 75.3054 12.852C75.6041 12.852 75.9074 12.852 76.2154 12.852C76.7101 12.852 77.0881 12.838 77.3494 12.81C77.6201 12.7727 77.8067 12.7027 77.9094 12.6C78.0121 12.488 78.0634 12.3294 78.0634 12.124C78.0634 11.8627 77.9747 11.69 77.7974 11.606C77.6294 11.5127 77.3774 11.424 77.0414 11.34L75.2074 10.892C74.7874 10.78 74.4607 10.64 74.2274 10.472C73.9941 10.2947 73.8261 10.08 73.7234 9.82803C73.6207 9.5667 73.5694 9.24936 73.5694 8.87603C73.5694 8.37203 73.6627 7.98003 73.8494 7.70003C74.0454 7.42003 74.3487 7.22403 74.7594 7.11203C75.1794 7.00003 75.7301 6.9487 76.4114 6.95803Z" fill="#1C1D22" fill-opacity="0.5"/>
<g opacity="0.5">
<path d="M3.78363 4.6667C3.78363 4.29851 4.09682 4.00003 4.48317 4.00003H5.18271C5.56905 4.00003 5.88225 4.29851 5.88225 4.6667C5.88225 5.03489 5.56905 5.33336 5.18271 5.33336H4.48317C4.09682 5.33336 3.78363 5.03489 3.78363 4.6667ZM7.28132 4.6667C7.28132 4.29851 7.59452 4.00003 7.98086 4.00003H14.2767C14.6631 4.00003 14.9762 4.29851 14.9762 4.6667C14.9762 5.03489 14.6631 5.33336 14.2767 5.33336H7.98086C7.59452 5.33336 7.28132 5.03489 7.28132 4.6667ZM3.78363 8.00003C3.78363 7.63184 4.09682 7.33336 4.48317 7.33336H5.18271C5.56905 7.33336 5.88225 7.63184 5.88225 8.00003C5.88225 8.36822 5.56905 8.6667 5.18271 8.6667H4.48317C4.09682 8.6667 3.78363 8.36822 3.78363 8.00003ZM7.28132 8.00003C7.28132 7.63184 7.59452 7.33336 7.98086 7.33336H14.2767C14.6631 7.33336 14.9762 7.63184 14.9762 8.00003C14.9762 8.36822 14.6631 8.6667 14.2767 8.6667H7.98086C7.59452 8.6667 7.28132 8.36822 7.28132 8.00003ZM3.78363 11.3334C3.78363 10.9652 4.09682 10.6667 4.48317 10.6667H5.18271C5.56905 10.6667 5.88225 10.9652 5.88225 11.3334C5.88225 11.7016 5.56905 12 5.18271 12H4.48317C4.09682 12 3.78363 11.7016 3.78363 11.3334ZM7.28132 11.3334C7.28132 10.9652 7.59452 10.6667 7.98086 10.6667H14.2767C14.6631 10.6667 14.9762 10.9652 14.9762 11.3334C14.9762 11.7016 14.6631 12 14.2767 12H7.98086C7.59452 12 7.28132 11.7016 7.28132 11.3334Z" fill="#1C1D22"/>
</g>
</svg>
